<svg id="Layer_1" data-name="Layer 1" xmlns="http://www.w3.org/2000/svg" viewBox="0 0 526.08 138.61"><defs><style>.cls-1,.cls-2,.cls-3,.cls-4{fill:none;stroke:#fff;stroke-miterlimit:10;}.cls-1,.cls-4{stroke-width:1.42px;}.cls-2{stroke-width:1.13px;}.cls-3{stroke-width:2.13px;}.cls-4{fill-rule:evenodd;}</style></defs><path class="cls-1" d="M282.73,95.53h2.46c1.22,0,2.44,0,3.63,0s2.21-.09,3-.12v1a8.59,8.59,0,0,0-2.7.4,2,2,0,0,0-1.22,1.25,9.1,9.1,0,0,0-.31,2.83V126.8a9.22,9.22,0,0,0,.31,2.83,1.93,1.93,0,0,0,1.22,1.25,12.11,12.11,0,0,0,2.7.43v1c-.8-.06-1.82-.12-3-.12s-2.41,0-3.63,0-2.63,0-3.82,0-2.13.06-2.87.12v-1a12.11,12.11,0,0,0,2.7-.43,1.93,1.93,0,0,0,1.22-1.25,9.22,9.22,0,0,0,.31-2.83V95.53l-12.59,37.08h-.82l-13.15-33.9v27.58a10,10,0,0,0,.34,3,2.29,2.29,0,0,0,1.36,1.5,9.12,9.12,0,0,0,3,.57v1c-.62-.06-1.44-.12-2.44-.12s-2,0-2.89,0-1.73,0-2.63,0a21.78,21.78,0,0,0-2.22.12v-1a7.59,7.59,0,0,0,2.7-.57,2.28,2.28,0,0,0,1.22-1.5,10.53,10.53,0,0,0,.31-3v-25.4a9.1,9.1,0,0,0-.31-2.83,2,2,0,0,0-1.22-1.25,8.74,8.74,0,0,0-2.7-.4v-1c.6,0,1.34.09,2.22.12s1.78,0,2.63,0,1.56,0,2.38,0,1.51-.09,2.07-.12l11.85,31.24M312.26,115A118,118,0,0,0,309,127.39a3.88,3.88,0,0,0,.31,2.27,2.49,2.49,0,0,0,1.5,1.22,11,11,0,0,0,2.69.43v1c-1-.06-2-.12-3.06-.12s-2,0-2.95,0-1.61,0-2.21,0a14.3,14.3,0,0,0-1.7.12v-1a5.49,5.49,0,0,0,2.13-1.25,7.91,7.91,0,0,0,2-3.32L320,95.11h.85L333.52,128a6,6,0,0,0,1.79,2.64,4.34,4.34,0,0,0,1.81.71v1c-.68-.06-1.53-.12-2.55-.12s-2,0-3,0c-1.36,0-2.64,0-3.8,0s-2.15.06-2.89.12v-1c1.79-.09,2.92-.4,3.4-.94s.4-1.7-.31-3.46l-10-26.5m9.24,16.89v1H311.61l.51-1Zm34-21.94v1a8.62,8.62,0,0,0-2.69.4,2,2,0,0,0-1.22,1.25,9.76,9.76,0,0,0-.31,2.83V126.8a9.9,9.9,0,0,0,.31,2.83,1.9,1.9,0,0,0,1.22,1.25,12.21,12.21,0,0,0,2.69.43v1c-.79-.06-1.81-.12-3-.12s-2.41,0-3.63,0-2.64,0-3.8,0-2.16.06-2.89.12v-1a11.9,11.9,0,0,0,2.69-.43,1.86,1.86,0,0,0,1.22-1.25,8.76,8.76,0,0,0,.34-2.83V100.89a8.64,8.64,0,0,0-.34-2.83,1.92,1.92,0,0,0-1.22-1.25,8.47,8.47,0,0,0-2.69-.4v-1c.73,0,1.7.09,2.89.12s2.44,0,3.8,0,2.44,0,3.63,0,2.21-.09,3-.12ZM355,84.51a12.92,12.92,0,0,0,3.77,3.82,23,23,0,0,0,6,3.06l-.25.74a63.5,63.5,0,0,1-6.16-1.67,28.61,28.61,0,0,1-4.87-2,20.73,20.73,0,0,1-3.94,2,47.12,47.12,0,0,1-5,1.67l-.26-.74a23.12,23.12,0,0,0,6-3.06,13.53,13.53,0,0,0,3.79-3.82Zm49.15,10.85c-.11,1.34-.22,2.61-.28,3.86s-.06,2.18-.06,2.83c0,.82,0,1.62,0,2.36s.09,1.36.11,1.92H402.8a35.51,35.51,0,0,0-1-5.78,5,5,0,0,0-2.21-3,9.6,9.6,0,0,0-4.85-.94H392v29.71a9.44,9.44,0,0,0,.37,3.12,2.33,2.33,0,0,0,1.55,1.41,13.84,13.84,0,0,0,3.35.49v1c-.91-.06-2.07-.12-3.46-.12s-2.81,0-4.22,0c-1.56,0-3,0-4.42,0s-2.47.06-3.32.12v-1a13.74,13.74,0,0,0,3.34-.49,2.22,2.22,0,0,0,1.53-1.41,8.58,8.58,0,0,0,.4-3.12V96.58h-2.81a9.79,9.79,0,0,0-4.84.94,5,5,0,0,0-2.21,3,33.31,33.31,0,0,0-1,5.78H375a17.44,17.44,0,0,0,.12-1.92c0-.74,0-1.54,0-2.36,0-.65,0-1.61-.09-2.83s-.14-2.52-.28-3.86c1.47,0,3.06.09,4.79.12s3.46,0,5.18,0h9.5c1.7,0,3.43,0,5.19,0s3.31-.09,4.73-.12Zm13.64,0c.73,0,1.67.09,2.86.12s2.35,0,3.49,0c1.64,0,3.2,0,4.7,0s2.58-.06,3.21-.06a18,18,0,0,1,7,1.19,9.36,9.36,0,0,1,4.19,3.29,8.12,8.12,0,0,1,1.39,4.62,10,10,0,0,1-.65,3.32,8.59,8.59,0,0,1-2.16,3.34,11.6,11.6,0,0,1-4.19,2.61,19.2,19.2,0,0,1-6.75,1h-4v-1h3.51a11.06,11.06,0,0,0,5.67-1.19,6,6,0,0,0,2.67-3.12,13.38,13.38,0,0,0,.68-4.36,9.59,9.59,0,0,0-2-6.41c-1.3-1.5-3.54-2.27-6.69-2.27-1.61,0-2.66.29-3.15.88a6.2,6.2,0,0,0-.73,3.6V126.8a9.9,9.9,0,0,0,.31,2.83,2,2,0,0,0,1.25,1.25,11.89,11.89,0,0,0,2.66.43v1c-.79-.06-1.78-.12-3-.12s-2.4,0-3.62,0-2.64,0-3.83,0-2.13.06-2.86.12v-1a12.54,12.54,0,0,0,2.69-.43,1.9,1.9,0,0,0,1.22-1.25,9.9,9.9,0,0,0,.31-2.83V100.89a9.76,9.76,0,0,0-.31-2.83,2,2,0,0,0-1.22-1.25,8.77,8.77,0,0,0-2.69-.4Zm17.32,19.28a8.86,8.86,0,0,1,5,2.12,9.58,9.58,0,0,1,2.27,4.77l1.3,5.33a14.91,14.91,0,0,0,1.08,3.31,1.74,1.74,0,0,0,1.7,1,2.39,2.39,0,0,0,1.48-.57,8,8,0,0,0,1.3-1.42l.77.57a9.79,9.79,0,0,1-2.27,2.49,5.62,5.62,0,0,1-3.32.85,5.38,5.38,0,0,1-3.4-1.13c-1-.77-1.7-2.27-2.18-4.51l-1.17-5.21a29.82,29.82,0,0,0-1-3.89,6.2,6.2,0,0,0-1.68-2.58,4.72,4.72,0,0,0-3.17-1h-5v-1m48-18.4v1a8.47,8.47,0,0,0-2.69.4A1.88,1.88,0,0,0,471,98.06a8.64,8.64,0,0,0-.34,2.83V126.8a8.76,8.76,0,0,0,.34,2.83,1.82,1.82,0,0,0,1.22,1.25,11.9,11.9,0,0,0,2.69.43v1c-.82-.06-1.82-.12-3-.12s-2.41,0-3.62,0c-1.37,0-2.64,0-3.83,0s-2.13.06-2.86.12v-1a12.32,12.32,0,0,0,2.69-.43,1.93,1.93,0,0,0,1.22-1.25,9.9,9.9,0,0,0,.31-2.83V100.89a9.76,9.76,0,0,0-.31-2.83,2,2,0,0,0-1.22-1.25,8.67,8.67,0,0,0-2.69-.4v-1c.73,0,1.67.09,2.86.12s2.46,0,3.83,0c1.21,0,2.4,0,3.62,0s2.19-.09,3-.12Zm25.45-.56a10.2,10.2,0,0,1,4,.59,15.16,15.16,0,0,1,2.41,1.33,9,9,0,0,0,1,.54,1.58,1.58,0,0,0,.77.2.77.77,0,0,0,.73-.57,7.16,7.16,0,0,0,.4-1.73h1.19c0,.6-.06,1.31-.11,2.1s-.09,1.9-.12,3.26,0,3.09,0,5.3h-1.19a15.82,15.82,0,0,0-1.11-4.82,9,9,0,0,0-2.75-3.74,7.15,7.15,0,0,0-4.7-1.47,6.49,6.49,0,0,0-4.57,1.67,5.65,5.65,0,0,0-1.81,4.39,6.38,6.38,0,0,0,1.19,3.94,12.31,12.31,0,0,0,3.23,2.87c1.33.85,2.78,1.75,4.34,2.75a50.71,50.71,0,0,1,4.84,3.31,13.42,13.42,0,0,1,3.35,3.63,8.88,8.88,0,0,1,1.22,4.79,9,9,0,0,1-5.53,8.85,14,14,0,0,1-5.53,1.07,12.14,12.14,0,0,1-4.39-.62,20.94,20.94,0,0,1-2.78-1.3,3.75,3.75,0,0,0-1.79-.74.76.76,0,0,0-.73.59,6.73,6.73,0,0,0-.4,1.71h-1.19c.06-.71.11-1.59.11-2.58s0-2.3.06-3.89,0-3.63,0-6.06h1.19a21.55,21.55,0,0,0,1.19,5.86,9.69,9.69,0,0,0,3,4.34,8.07,8.07,0,0,0,5.35,1.64,7.87,7.87,0,0,0,3.26-.68,5.89,5.89,0,0,0,2.53-2.26,7.36,7.36,0,0,0,1-4,6.68,6.68,0,0,0-1-3.71,11.19,11.19,0,0,0-2.84-3,48.79,48.79,0,0,0-4.28-2.86c-1.64-1-3.17-2-4.59-3.06a13.07,13.07,0,0,1-3.43-3.63,9.4,9.4,0,0,1-1.27-5,8.7,8.7,0,0,1,1.38-5.1,8.27,8.27,0,0,1,3.63-3,11.81,11.81,0,0,1,4.79-1Zm53,.56c-.14,1.22-.22,2.41-.28,3.55s-.09,2-.09,2.63,0,1.22.06,1.79.09,1,.11,1.44h-1.19a24.66,24.66,0,0,0-.9-4.87,4.12,4.12,0,0,0-2-2.58,8.79,8.79,0,0,0-4.14-.74H540.6a9.3,9.3,0,0,0-2.7.29,1.78,1.78,0,0,0-1.22,1.19,9.1,9.1,0,0,0-.31,2.83V126.8a9.22,9.22,0,0,0,.31,2.83,1.82,1.82,0,0,0,1.22,1.22,9.3,9.3,0,0,0,2.7.29h3.79a11.06,11.06,0,0,0,5-.88,5.23,5.23,0,0,0,2.47-2.89,22,22,0,0,0,1.1-5.47h1.22a33.45,33.45,0,0,0-.17,3.77c0,.65,0,1.58.09,2.83s.14,2.52.28,3.83c-1.76-.06-3.77-.12-6-.12s-4.19,0-6,0h-2.95c-1.19,0-2.49,0-3.88,0s-2.81,0-4.23.06-2.77,0-4.08.06v-1a12.11,12.11,0,0,0,2.7-.43,1.83,1.83,0,0,0,1.21-1.25,8.87,8.87,0,0,0,.32-2.83V100.89a8.75,8.75,0,0,0-.32-2.83A1.89,1.89,0,0,0,530,96.81a8.59,8.59,0,0,0-2.7-.4v-1l4.08.09c1.42,0,2.84,0,4.23,0s2.69,0,3.88,0h2.95c1.62,0,3.43,0,5.47,0s3.86,0,5.44-.14ZM539.8,113.22v1h-3.43v-1Zm6.07-6.89c-.14,2-.2,3.49-.17,4.54v2.89c0,.85,0,1.81,0,2.86s.15,2.55.26,4.54h-1.19c-.14-1.11-.31-2.18-.48-3.26a5.07,5.07,0,0,0-1.28-2.61,4.31,4.31,0,0,0-3.26-1v-1a4.15,4.15,0,0,0,2.64-.71,3.82,3.82,0,0,0,1.33-1.78,11.53,11.53,0,0,0,.6-2.27c.08-.79.19-1.5.31-2.13Z" transform="translate(-29.08 -55.31)"/><path class="cls-2" d="M326.07,153.53c-.26.82-1.22,4-1.39,4.51l-3.06,8.76h-2L325,152.06h2.18l5.42,14.74h-2L327.49,158c-.2-.54-.43-1.22-.68-2s-.46-1.5-.74-2.49Zm-3,9.16.57-1.65h4.93l.57,1.65Zm23.84-9v-1.64H358v1.64h-4.62v13.1h-1.87V153.7Zm28.44,13.1V152.06h9v1.64h-7.12v4.82h6.64v1.67h-6.64v5h7.2v1.65Zm26.75,0V152.06H404v13.09h6.83v1.65ZM430,152.06V166.8h-1.9V152.06Zm18.08,14.74V152.06h9v1.64H450v4.82h6.63v1.67H450v5h7.2v1.65Zm26.73,0V152.06h5.08a6.1,6.1,0,0,1,2.83.56,3.8,3.8,0,0,1,1.65,1.62,5,5,0,0,1,.53,2.35,4.83,4.83,0,0,1-.53,2.33,3.57,3.57,0,0,1-1.65,1.58,5.89,5.89,0,0,1-2.83.57H476.7V159.4h3.09a4.4,4.4,0,0,0,1.87-.34,2.17,2.17,0,0,0,1-1,3.4,3.4,0,0,0,.31-1.5,3.73,3.73,0,0,0-.31-1.53,2.25,2.25,0,0,0-1-1,4,4,0,0,0-1.9-.37H476.7v13.1Zm7.49-6.1,3.2,6.1h-2.18l-3-5.73" transform="translate(-29.08 -55.31)"/><path class="cls-3" d="M122.87,165.55,30.66,58.29l-.49,121.18c9.53-34.3,14.57-63,14.26-84.16L119,170.23c-6.21,7.56-12.53,15.22-18.85,22.9,32.29-29.08,65.11-63.41,100-99-.28,21.17,3.88,52.44,13.41,86.74l1.5-122.66C184.29,93.32,153.6,129,122.87,165.55Z" transform="translate(-29.08 -55.31)"/><path class="cls-1" d="M94.24,110.1h56.83a1,1,0,0,1,1,1v3.14a1.05,1.05,0,0,1-1,1H94.24a1,1,0,0,1-1-1V111.1a1,1,0,0,1,1-1Z" transform="translate(-29.08 -55.31)"/><path class="cls-4" d="M122.87,165.55,119,170.23c-6.21,7.56-12.53,15.22-18.85,22.9,32.29-29.08,65.11-63.41,100-99-.28,21.17,3.88,52.44,13.41,86.74l1.5-122.66C184.29,93.32,153.6,129,122.87,165.55Z" transform="translate(-29.08 -55.31)"/></svg>