<svg id="Layer_1" data-name="Layer 1" xmlns="http://www.w3.org/2000/svg" viewBox="0 0 197.15 236.24"><defs><style>.cls-1{fill:#fff;fill-rule:evenodd;}</style></defs><path class="cls-1" d="M297.91,485.87,199.6,298l-.54,212.2c10.18-60.06,15.54-110.32,15.23-147.37L293.8,494.06c-6.64,13.24-13.38,26.64-20.13,40.08,34.44-50.91,69.45-111,106.64-173.34-.28,37.08,4.14,91.82,14.32,151.88l1.58-214.78c-32.82,61.49-65.53,124-98.3,188Z" transform="translate(-199.06 -297.9)"/><path class="cls-1" d="M268.46,411.54H393.18a2,2,0,0,1,2.18,1.73v5.5a2.1,2.1,0,0,1-2.18,1.76H268.46a2,2,0,0,1-2.19-1.76v-5.5a2,2,0,0,1,2.19-1.73Z" transform="translate(-199.06 -297.9)"/></svg>