<svg id="Layer_1" data-name="Layer 1" xmlns="http://www.w3.org/2000/svg" viewBox="0 0 303.65 210.61"><defs><style>.cls-1,.cls-2{fill:#fff;}.cls-1{fill-rule:evenodd;}</style></defs><path class="cls-1" d="M241.39,343.51c.26,16.13-3.6,38-10.85,64.12l.36-92.35,71.27,83-3.38,3Z" transform="translate(-146.18 -315.19)"/><path class="cls-1" d="M360.11,342.58c-.26,16.12,2.95,39.94,10.2,66.07l1.14-93.46c-29.29,33.45-58.51,67.5-87.57,102.84,24.61-22.16,49.61-48.3,76.23-75.45Z" transform="translate(-146.18 -315.19)"/><path class="cls-1" d="M279,356.3H323a.47.47,0,0,1,.46.48v1.44a.47.47,0,0,1-.46.48H279a.47.47,0,0,1-.46-.48v-1.44a.47.47,0,0,1,.46-.48Z" transform="translate(-146.18 -315.19)"/><path class="cls-2" d="M187.28,457.12v1.05a8.47,8.47,0,0,0-2.69.4,2,2,0,0,0-1.22,1.25,8.72,8.72,0,0,0-.31,2.83v25.91a9,9,0,0,0,.31,2.83,1.9,1.9,0,0,0,1.22,1.25,11.9,11.9,0,0,0,2.69.43v1c-.79-.06-1.82-.12-3-.12s-2.41,0-3.62,0c-1.36,0-2.64,0-3.83,0s-2.13.06-2.86.12v-1a12,12,0,0,0,2.69-.43,1.93,1.93,0,0,0,1.22-1.25,9.35,9.35,0,0,0,.31-2.83V459.84l.23.15-12.82,34.38h-.82l-13.15-33.9v27.58A10,10,0,0,0,152,491a2.31,2.31,0,0,0,1.36,1.5,9.12,9.12,0,0,0,3,.57v1c-.62-.06-1.44-.12-2.44-.12s-2,0-2.89,0-1.73,0-2.63,0a21.4,21.4,0,0,0-2.21.12v-1a7.48,7.48,0,0,0,2.69-.57,2.28,2.28,0,0,0,1.22-1.5,10.53,10.53,0,0,0,.31-2.95v-25.4a9,9,0,0,0-.31-2.83,2,2,0,0,0-1.22-1.25,8.62,8.62,0,0,0-2.69-.4v-1.05c.59,0,1.33.09,2.21.12s1.78.05,2.63.05,1.56,0,2.38-.05,1.51-.09,2.07-.12l11.85,31.24-.88.4,11.74-31.47h2.47c1.21,0,2.43,0,3.62-.05s2.22-.09,3-.12Zm29-.25L229,489.72a5.86,5.86,0,0,0,1.78,2.64,4.33,4.33,0,0,0,1.82.71v1c-.68-.06-1.53-.12-2.55-.12s-2,0-3,0c-1.36,0-2.63,0-3.8,0s-2.15.06-2.89.12v-1c1.79-.09,2.92-.4,3.4-.94s.4-1.7-.31-3.46l-9.72-26,.85-.68-9.1,23.61a15.12,15.12,0,0,0-1,3.52,3.86,3.86,0,0,0,.31,2.26,2.49,2.49,0,0,0,1.5,1.22,11,11,0,0,0,2.7.43v1c-1-.06-2-.12-3.07-.12s-2,0-2.94,0-1.62,0-2.22,0a14.3,14.3,0,0,0-1.7.12v-1a5.49,5.49,0,0,0,2.13-1.25,7.91,7.91,0,0,0,2-3.32l12.28-31.63h.85Zm6.35,22.19v1.05H207.06l.51-1.05Zm34-21.94v1.05a8.62,8.62,0,0,0-2.69.4,2,2,0,0,0-1.22,1.25,9.66,9.66,0,0,0-.31,2.83v25.91a10,10,0,0,0,.31,2.83,1.9,1.9,0,0,0,1.22,1.25,12.21,12.21,0,0,0,2.69.43v1c-.79-.06-1.81-.12-3-.12s-2.41,0-3.63,0-2.64,0-3.8,0-2.15.06-2.89.12v-1a11.9,11.9,0,0,0,2.69-.43,1.84,1.84,0,0,0,1.22-1.25,8.89,8.89,0,0,0,.34-2.83V462.65a8.56,8.56,0,0,0-.34-2.83,1.9,1.9,0,0,0-1.22-1.25,8.47,8.47,0,0,0-2.69-.4v-1.05c.74,0,1.7.09,2.89.12s2.44.05,3.8.05,2.44,0,3.63-.05,2.21-.09,3-.12Zm-6.15-10.85a13,13,0,0,0,3.77,3.82,23.38,23.38,0,0,0,6,3.07l-.25.73a62.54,62.54,0,0,1-6.15-1.67,29.7,29.7,0,0,1-4.88-2,21.06,21.06,0,0,1-3.94,2,46.37,46.37,0,0,1-5,1.67l-.25-.73a23.55,23.55,0,0,0,6-3.07,13.58,13.58,0,0,0,3.8-3.82Zm49.15,10.85c-.11,1.34-.22,2.61-.28,3.86s-.06,2.18-.06,2.83c0,.83,0,1.62,0,2.36s.09,1.36.12,1.92h-1.19a36.47,36.47,0,0,0-1-5.78,5,5,0,0,0-2.21-3,9.56,9.56,0,0,0-4.85-1h-2.8v29.74a9.44,9.44,0,0,0,.37,3.12,2.36,2.36,0,0,0,1.56,1.42,14.35,14.35,0,0,0,3.34.48v1c-.91-.06-2.07-.12-3.46-.12s-2.8,0-4.22,0-3,0-4.42,0-2.47.06-3.32.12v-1a14.54,14.54,0,0,0,3.35-.48,2.29,2.29,0,0,0,1.53-1.42,8.85,8.85,0,0,0,.39-3.12V458.31h-2.8a9.79,9.79,0,0,0-4.85,1,5,5,0,0,0-2.21,3,32.51,32.51,0,0,0-1,5.78h-1.19c0-.56.11-1.19.11-1.92s0-1.53,0-2.36c0-.65,0-1.61-.09-2.83s-.14-2.52-.28-3.86c1.47,0,3.06.09,4.79.12s3.46.05,5.19.05h9.49c1.7,0,3.43,0,5.19-.05s3.32-.09,4.73-.12Zm13.64,0c.74,0,1.67.09,2.86.12s2.35.05,3.49.05c1.64,0,3.2,0,4.7-.05s2.58-.06,3.21-.06a17.93,17.93,0,0,1,7,1.19,9.52,9.52,0,0,1,4.19,3.26,8.28,8.28,0,0,1,1.39,4.65,9.75,9.75,0,0,1-.65,3.32,8.91,8.91,0,0,1-2.15,3.34,11.21,11.21,0,0,1-4.2,2.58,19.07,19.07,0,0,1-6.75,1h-5v-1h4.5a11.06,11.06,0,0,0,5.67-1.19,6,6,0,0,0,2.67-3.12,13.38,13.38,0,0,0,.68-4.36,9.54,9.54,0,0,0-2-6.41c-1.3-1.5-3.54-2.27-6.69-2.27-1.61,0-2.66.29-3.14.88a6.13,6.13,0,0,0-.74,3.6v25.91a10,10,0,0,0,.31,2.83,2,2,0,0,0,1.25,1.25,11.89,11.89,0,0,0,2.66.43v1c-.79-.06-1.78-.12-3-.12s-2.41,0-3.63,0-2.64,0-3.83,0-2.12.06-2.86.12v-1a12.54,12.54,0,0,0,2.69-.43,1.9,1.9,0,0,0,1.22-1.25,10,10,0,0,0,.31-2.83V462.65a9.66,9.66,0,0,0-.31-2.83,2,2,0,0,0-1.22-1.25,8.77,8.77,0,0,0-2.69-.4Zm8.3,18.54c1.88.09,3.35.14,4.43.23s1.95.17,2.63.25,1.33.15,2,.26a9,9,0,0,1,5,2.1,9.79,9.79,0,0,1,2.27,4.79l1.31,5.33a14.49,14.49,0,0,0,1.07,3.31,1.73,1.73,0,0,0,1.7,1,2.39,2.39,0,0,0,1.48-.57,9.25,9.25,0,0,0,1.3-1.42l.77.57a10.32,10.32,0,0,1-2.27,2.49,5.6,5.6,0,0,1-3.32.85,5.38,5.38,0,0,1-3.4-1.13c-1-.76-1.7-2.27-2.18-4.51L333.21,484a30.44,30.44,0,0,0-1-3.89,6.28,6.28,0,0,0-1.67-2.58,4.6,4.6,0,0,0-3.18-1h-5.64Zm48.76-18.54v1.05a8.47,8.47,0,0,0-2.69.4,1.9,1.9,0,0,0-1.22,1.25,8.56,8.56,0,0,0-.34,2.83v25.91a8.89,8.89,0,0,0,.34,2.83,1.84,1.84,0,0,0,1.22,1.25,11.9,11.9,0,0,0,2.69.43v1c-.82-.06-1.81-.12-3-.12s-2.41,0-3.63,0-2.64,0-3.83,0-2.13.06-2.86.12v-1a12.21,12.21,0,0,0,2.69-.43,1.9,1.9,0,0,0,1.22-1.25,10,10,0,0,0,.31-2.83V462.65a9.66,9.66,0,0,0-.31-2.83,2,2,0,0,0-1.22-1.25,8.62,8.62,0,0,0-2.69-.4v-1.05c.73,0,1.67.09,2.86.12s2.47.05,3.83.05,2.41,0,3.63-.05,2.18-.09,3-.12Zm25.46-.56a10.33,10.33,0,0,1,4,.59,15.16,15.16,0,0,1,2.41,1.33,9,9,0,0,0,1,.54,1.58,1.58,0,0,0,.77.2.79.79,0,0,0,.74-.57,7.25,7.25,0,0,0,.39-1.72h1.19c0,.59,0,1.3-.11,2.09s-.08,1.9-.11,3.26,0,3.09,0,5.3h-1.19a15.6,15.6,0,0,0-1.11-4.82A9.25,9.25,0,0,0,401,459a7.3,7.3,0,0,0-4.7-1.44,6.49,6.49,0,0,0-4.57,1.67,5.65,5.65,0,0,0-1.81,4.39,6.5,6.5,0,0,0,1.19,3.95,12.47,12.47,0,0,0,3.23,2.86l4.34,2.75a52.23,52.23,0,0,1,4.85,3.31,13.54,13.54,0,0,1,3.34,3.63,8.88,8.88,0,0,1,1.22,4.79,9.57,9.57,0,0,1-1.5,5.53,9.21,9.21,0,0,1-4,3.29,13.48,13.48,0,0,1-5.53,1.1,12.14,12.14,0,0,1-4.39-.62,19.75,19.75,0,0,1-2.78-1.3,3.77,3.77,0,0,0-1.78-.74.78.78,0,0,0-.74.57,7.67,7.67,0,0,0-.4,1.73h-1.19c.06-.74.12-1.59.12-2.58s0-2.3,0-3.89,0-3.63,0-6.06h1.19a21.25,21.25,0,0,0,1.19,5.84,9.73,9.73,0,0,0,3,4.36,8.1,8.1,0,0,0,5.36,1.65,7.63,7.63,0,0,0,3.26-.71,5.83,5.83,0,0,0,2.52-2.24,7.36,7.36,0,0,0,1-4,6.68,6.68,0,0,0-1-3.71,11.3,11.3,0,0,0-2.83-3c-1.22-.93-2.67-1.87-4.28-2.86s-3.18-2-4.6-3.06a12.77,12.77,0,0,1-3.43-3.66,9.22,9.22,0,0,1-1.27-5,8.63,8.63,0,0,1,1.39-5.1,8.19,8.19,0,0,1,3.62-3,11.83,11.83,0,0,1,4.8-1Zm53,.56c-.14,1.22-.22,2.41-.28,3.55s-.08,2-.08,2.63,0,1.22,0,1.79.09,1.05.12,1.44h-1.19a25.52,25.52,0,0,0-.91-4.9,4.14,4.14,0,0,0-2-2.55,8.69,8.69,0,0,0-4.14-.77h-4.33a9.17,9.17,0,0,0-2.7.32,1.75,1.75,0,0,0-1.21,1.19,8.67,8.67,0,0,0-.32,2.83v25.91a9,9,0,0,0,.32,2.83,1.79,1.79,0,0,0,1.21,1.22,9.35,9.35,0,0,0,2.7.29h3.8a11,11,0,0,0,5-.88,5.19,5.19,0,0,0,2.47-2.92,21.81,21.81,0,0,0,1.11-5.44h1.22a31.22,31.22,0,0,0-.17,3.77c0,.65,0,1.58.08,2.83s.14,2.52.28,3.83c-1.75-.06-3.77-.12-6-.12s-4.19,0-5.95,0h-2.95c-1.19,0-2.49,0-3.88,0s-2.81,0-4.22.06-2.78,0-4.09.06v-1a12.11,12.11,0,0,0,2.7-.43,1.86,1.86,0,0,0,1.22-1.25,9.35,9.35,0,0,0,.31-2.83V462.65a9,9,0,0,0-.31-2.83,1.92,1.92,0,0,0-1.22-1.25,8.59,8.59,0,0,0-2.7-.4v-1.05l4.09.09c1.41,0,2.83,0,4.22.06l3.88,0h2.95l5.47,0c2,0,3.86-.06,5.44-.15ZM439.82,475v1h-9.58v-1Zm1.5-6.89c-.14,2-.2,3.49-.17,4.54v2.89c0,.85,0,1.81.06,2.86s.14,2.55.25,4.54h-1.19c-.14-1.11-.31-2.21-.48-3.26a5,5,0,0,0-1.28-2.61,4.31,4.31,0,0,0-3.26-1v-1a4.08,4.08,0,0,0,2.64-.71,3.82,3.82,0,0,0,1.33-1.78,10.71,10.71,0,0,0,.6-2.27c.08-.79.2-1.5.31-2.13Z" transform="translate(-146.18 -315.19)"/><path class="cls-2" d="M228.83,525.81l4.37-12H235l4.42,12h-1.62l-2.55-7.12c-.14-.45-.34-1-.54-1.64s-.45-1.5-.76-2.52h.31c-.31,1-.54,1.87-.76,2.55s-.4,1.19-.54,1.61l-2.47,7.12Zm2.19-3.35v-1.33h6.15v1.33Zm20-7.31v-1.33h9.07v1.33H256.3v10.66h-1.53V515.15Zm23.13,10.66v-12h7.32v1.33h-5.79v3.91h5.39v1.36h-5.39v4h5.87v1.36Zm21.74,0v-12h1.53v10.63H303v1.36Zm22.68-12v12H317v-12Zm14.71,12v-12h7.32v1.33h-5.79v3.91h5.39v1.36h-5.39v4h5.87v1.36Zm21.74,0v-12h4.11a5,5,0,0,1,2.3.45,3.29,3.29,0,0,1,1.36,1.33,4.09,4.09,0,0,1,.43,1.9,4,4,0,0,1-.43,1.9,3.19,3.19,0,0,1-1.36,1.28,4.94,4.94,0,0,1-2.3.48h-3.25V519.8h3.2a3.63,3.63,0,0,0,1.5-.29,1.73,1.73,0,0,0,.85-.79,2.68,2.68,0,0,0,.28-1.22,2.91,2.91,0,0,0-.28-1.25,1.83,1.83,0,0,0-.85-.82,3.27,3.27,0,0,0-1.53-.28h-2.49v10.66Zm6.89,0L359,520.39h1.73l2.95,5.42Z" transform="translate(-146.18 -315.19)"/></svg>