<?xml version="1.0" encoding="UTF-8"?>
<!DOCTYPE svg PUBLIC "-//W3C//DTD SVG 1.1//EN" "http://www.w3.org/Graphics/SVG/1.1/DTD/svg11.dtd">
<!-- Creator: CorelDRAW 2020 (64-Bit) -->
<svg xmlns="http://www.w3.org/2000/svg" xml:space="preserve" width="2480px" height="3508px" version="1.1" style="shape-rendering:geometricPrecision; text-rendering:geometricPrecision; image-rendering:optimizeQuality; fill-rule:evenodd; clip-rule:evenodd"
viewBox="0 0 2480 3507.43"
 xmlns:xlink="http://www.w3.org/1999/xlink"
 xmlns:xodm="http://www.corel.com/coreldraw/odm/2003">
 <defs>
  <style type="text/css">
   <![CDATA[
    .str0 {stroke:#373435;stroke-width:2.36;stroke-miterlimit:2.61313}
    .fil1 {fill:#373435}
    .fil0 {fill:#373435}
    .fil2 {fill:#373435;fill-rule:nonzero}
    .fnt0 {font-weight:normal;font-size:99.99px;font-family:'Arial'}
   ]]>
  </style>
   <clipPath id="id0">
    <rect x="-748.5" y="-1117.89" width="2266.74" height="2266.74"/>
   </clipPath>
 </defs>
 <g id="Layer_x0020_1">
  <metadata id="CorelCorpID_0Corel-Layer"/>
  <g style="clip-path:url(#id0)">
   <image x="-748.5" y="-1117.89" width="2266.74" height="2266.74" xlink:href="maitrise-atelier-logo_Images\maitrise-atelier-logo_ImgID1.png"/>
  </g>
  <g id="_1916878477072">
   <path class="fil0" d="M2411.35 64.4c4.36,-0.09 5.91,0.65 6.7,-2.89 0.04,-0.17 -0.15,-0.78 -0.14,-0.96l0.27 -5.83c0.09,-0.45 0.31,-1.03 0.41,-1.52l15.1 -66.45c0.2,-0.65 0.96,-2.35 1.16,-3.01 1.36,-4.47 0.54,-1.78 1.5,-6.83l11.62 -48.78c0.84,-3.14 0.62,-1.83 0.88,-5.37 0.19,-2.61 -0.2,-5.73 0,-8.34l8.55 -39.36c1.18,-8.4 1.28,-4.81 1.83,-6.5 0.16,-0.49 0.44,-0.98 0.6,-1.49l3.04 -13.62c1.76,-5.61 0.79,3.67 2.42,-7.99l2.94 -15.81c2.56,-7.87 0.55,-9.3 1.59,-17.16 1.92,-14.59 2.16,2.45 3.95,-14.8l0.99 -9.42c0.14,-0.53 0.39,-1.02 0.55,-1.53l1.24 -2.93c2.23,-7.1 0.62,-10.69 2.93,-17.9 1.78,-5.58 0.27,3.84 2.26,-6.07 1.34,-6.65 -0.23,-12.52 1.89,-18.94 0.16,-0.49 0.46,-0.97 0.63,-1.45l2.19 -22.81c2.05,-14.79 2.69,2.7 4.13,-14.62 0.46,-5.52 -0.75,-13.31 0.03,-18.72 2.12,-14.7 2.66,2.62 4.14,-14.6 0.86,-9.95 -1.37,-19.77 2.01,-29.24 4.68,-13.13 2.08,-61.01 2.08,-79.16 7.4,2.68 15.57,12.49 20.9,18.68 0.52,0.61 1.97,2.51 2.65,3.6 13.41,21.37 92.91,96.72 113.97,117.25l280.15 284.37c1.8,1.81 1.8,1.8 3.1,3.14l7.31 7.27c3.22,2.51 0.83,1.55 5.2,3.13l0 12.5c-3.62,1.32 -2.09,0.84 -4.03,2.22l-7.04 7.55c-1.88,3.08 -0.97,2.4 -2.88,5.45l-45.82 58.33c-4.67,7.43 -13.37,12.27 -17.94,19.56l-13.96 19.36c-0.23,0.4 -0.49,0.96 -0.73,1.36l-11.75 19.49c10.85,-0.24 13.11,-3.34 18.83,-8.25l8.96 -9.78c1.87,-4.23 1.24,-1.26 1.37,-6.97 5.73,-0.12 7.38,-0.93 11.62,-5.04l36.32 -32.42c12.72,-13.04 25.24,-29.08 40.92,-38.24l338.16 -340.92c17.48,-17.15 56.89,-52.33 70.2,-73.53l50.63 -51.44c5.7,-5.71 11.56,-14.07 18.74,-16.67 0,13.49 4.33,17.27 4.29,31.13 -0.03,10.51 -1.07,25.64 -0.2,35.61 0.98,11.22 4.59,8.68 4.21,31.2 -0.12,7.39 -0.57,11.16 1.48,17.26 1.92,5.69 0.21,-3.78 2.31,6.03 2.06,9.63 -0.81,19.39 2.5,28.75l1.2 2.97c2,7.3 0.35,14.62 2.96,22.03 2.47,6.99 1.91,13.34 1.95,20.96 0.07,15.23 8.03,29.99 8.47,45.7l2.08 12.49c2.35,6.71 1.35,11.96 2.22,18.61 1.93,14.59 2.17,-2.44 3.95,14.8 0.33,3.13 -0.11,4.39 0.57,7.77 2.01,9.98 0.35,0.31 2.23,6.1 2.55,7.88 0.55,9.3 1.59,17.16l4.24 20.75c1.68,11.81 0.73,2.37 2.48,7.94l30.63 152.68 8.33 0 0 -729.08c-4.32,1.57 -2.05,0.58 -5.26,3.08 -4.46,3.48 -0.7,-0.37 -4.16,4.16l-24.94 33.39c-2.24,2.19 -2.11,2.09 -4.19,4.15 -1.94,1.91 -2.14,2.05 -4.22,4.11l-42 49.65c-8.01,12.77 -23.28,22.82 -27.71,30.61l-15.63 17.7c-1.09,1.06 -3.87,3.69 -4.25,4.09 -6.6,7.08 -6.46,10.79 -22.83,27.16 -3.51,3.5 -4.88,4.8 -8.4,8.27l-10.35 14.64c-4.15,5.35 0.57,-0.35 -4.09,4.24 -16.65,16.4 -15.7,19.39 -22.9,27.1 -10.67,11.44 -19.95,19.1 -24.75,27.33l-12.92 14.16c-0.44,0.41 -1.73,1.57 -2.15,2.01 -4.13,4.25 -4.92,5.87 -5.05,11.62l-8.33 0c-0.18,8.23 -5.89,12.26 -11.44,17.72 -16.02,15.73 -13.14,17.73 -34.42,38.49l-9.01 11.82c-1.85,3.17 -0.05,0.77 -2.42,3.83l-15.71 15.54c-0.81,0.82 -3.31,3.56 -3.91,4.42 -0.26,0.36 -0.56,0.9 -0.8,1.28l-17.16 20.34c-8.03,8.61 -3.84,8.6 -28.04,32.36 -0.43,0.43 -1.68,1.64 -2.11,2.06l-9.01 11.82c-6.33,10.85 -17.98,18.17 -25.73,30.51 -4.03,6.42 -9.58,8.73 -13.77,15.4 -8.55,13.61 -22.2,24.77 -27.16,33.25l-23.57 26.42c-7.71,13.2 -17.04,18.81 -22.25,27.74l-27.42 32.99c-6.86,8.81 -10.67,9.53 -14.98,18.35l-11.05 5.61 -2.19 -8.23c-0.12,-0.22 -1.98,-2.26 -2.84,-3.4l-26.38 -34.03c-5.58,-8.03 -14.3,-13.81 -19.3,-22.37l-29.16 -33.33c-0.23,-0.4 -0.49,-0.96 -0.74,-1.34l-8.96 -9.79c-2.11,-2.07 -4.11,-4.09 -6.29,-6.21l-10.54 -14.45c-1.48,-2.13 -2.71,-3.23 -5,-5.42 -4.16,-4.01 -3.09,-2.1 -6.29,-6.21 -13.27,-17.05 -0.39,-4.05 -21.96,-25.94 -1.59,-1.61 -0.61,-0.09 -3.04,-3.22 -2.37,-3.06 -0.57,-0.65 -2.42,-3.83l-16.34 -19.07c-0.31,-0.29 -0.76,-0.71 -1.07,-1.01 -5.51,-5.23 -8.05,-3.63 -8.3,-14.62l-8.33 0 -15.95 -23.62c-8.36,-14.32 -22.49,-23.35 -31.32,-37.42 -7.51,-11.97 -20.08,-18.86 -29.17,-33.33 -7.72,-12.31 -21.03,-19.32 -28.42,-31.99 -9.67,-16.56 -29.29,-25.46 -39.5,-41.73 -1.7,-2.7 -0.76,-1.7 -2.16,-4.1 -1.86,-3.17 -0.05,-0.77 -2.42,-3.82l-15.71 -15.55c-1.58,-1.61 -0.6,-0.09 -3.03,-3.21l-13.54 -17.71c-3.93,-3.86 -7.03,-7.05 -11.47,-11.44l-38.69 -46.72c-5.13,-7.38 -12.8,-12.04 -18.65,-18.84l-10.26 -14.74c-0.07,-0.07 -2.19,-2.05 -3.21,-3.04l-11.5 -11.42c-5.95,-5.81 -7.94,-11.96 -13.42,-17.82 -0.19,-0.21 -2.92,-2.83 -3.17,-3.07 -0.94,-0.91 -1.59,-1.57 -3.17,-3.09 -0.74,-0.72 -3.02,-2.86 -3.2,-3.04l-7.61 -11.14c-8.66,-13.79 -24.29,-21.93 -32.59,-36.15 -1.86,-3.18 -0.05,-0.78 -2.43,-3.83 -5.46,-7.04 -13.56,-11.36 -18.88,-18.61 -3.22,-4.38 -2.73,1.57 -2.98,-9.52l-8.33 0 0 643.67c0,7.67 -0.01,15.32 -0.08,22.99l2.16 16.59c3.99,11.19 2.08,36.37 2.08,49.99z"/>
   <path class="fil0" d="M3107.1 610.17l-0.05 -135.45c1.28,-6.34 -1.24,-4 4.21,-6.2 1.87,-4.62 -4.09,-4.27 8.18,-4.48 18.7,-0.31 -6.93,4.63 33.48,4.48 44.37,-0.16 45.34,2.46 71.96,28.03 1.56,1.5 4.93,5.07 5.76,6.74 5.88,11.82 7.5,31.58 5.55,46.41 -0.57,4.32 -0.2,2.1 -1.23,5.02l-4.23 8.27c-5.52,10.9 -12.91,19.68 -22.59,27.4 -3.01,2.39 -0.6,0.66 -3.76,2.49l-36.84 13.15c-5.22,0.2 -6.5,-0.56 -11.65,0.85 -0.52,0.15 -1.01,0.41 -1.51,0.57 -1.44,0.48 -1.47,0.79 -2.9,1.27 -8.45,2.83 -34.78,1.45 -44.38,1.45zm-70.83 -162.48l0 4.16c8.23,2.98 4.15,3.98 12.5,4.17 0.18,7.89 4.31,9.24 4.18,31.24 -0.2,32.35 3.65,215.57 -2.57,228.66l-3.94 6.48c-6.95,9.21 -5.7,-0.59 -6,12.75l83.32 0 -9.68 -15.31c-3.9,-5.7 -1.4,-3.5 -6.98,-5.52l0 -83.32 54.16 0c0.21,9.59 1.55,6.64 5.96,12.79l3.81 6.59c0.7,1.09 2.16,3.02 2.66,3.59 2.17,2.51 6.3,5.71 8.46,8.21 0.4,0.46 1.51,1.81 1.86,2.31l1.53 2.63c4.44,7.6 11.2,11.95 15.93,19.49l2.9 5.43c0.24,0.38 0.54,0.92 0.8,1.29 5.3,7.62 14.19,10.86 14.41,20.99 10.78,0.24 14.79,10.98 23.54,16.04 0.54,0.32 2.19,1.12 2.76,1.41l23.58 9.75c9.37,3.27 19.21,1.97 29.28,1.96 12.5,-0.01 25,0 37.5,0l0 -8.33c-1.74,0 -4.5,0.14 -6.15,-0.1 -13.74,-1.97 5.83,1.87 -3.51,-0.66l-26.5 -15.16c-0.4,-0.24 -0.96,-0.49 -1.36,-0.73l-25.69 -26.38c-0.23,-0.4 -0.49,-0.96 -0.73,-1.35l-5.78 -6.72c-13.82,-13.62 -18.09,-17.31 -28.35,-32.06 -3.88,-5.57 -10.21,-9.47 -13.71,-15.45 -1.42,-2.44 -0.42,-1.35 -2.16,-4.09 -0.14,-0.21 -3.31,-4.15 -3.73,-4.6l-7.32 -9.35c10.37,0 15.69,-1.48 23.65,-5.52l15.35 -9.64c0.39,-0.24 0.93,-0.53 1.32,-0.76 9.03,-5.43 15.69,-13.01 23.28,-20.46l8.76 -12.08c1.67,-3.76 0.24,-0.12 1.74,-4.51 0.75,-2.23 0.72,-2.76 1.4,-4.84 0.17,-0.51 0.35,-1.06 0.53,-1.57l1.76 -4.48c2.43,-7.67 1.36,-18.83 1.44,-27.87 0.05,-4.86 0.28,-9.21 -0.9,-13.68l-3.75 -10.83c-0.17,-0.52 -0.31,-1.09 -0.48,-1.6l-6.48 -12.27c-1.37,-1.82 -3.03,-3.8 -3.62,-4.72 -6,-9.4 -7.62,-10.9 -16.66,-16.66l-13.97 -8.95c-8.59,-4.3 -23.75,-9.64 -33.29,-10.45 -10.8,-0.92 -20.39,0.83 -30.69,-2.64 -14.11,-4.76 -48.66,-1.38 -65.21,-1.45 -17.33,-0.08 -21.81,-3.73 -25,4.17l-8.33 0c-2.53,-6.28 -11.42,-4.88 -18.9,-4.32 -9.1,0.68 -8.14,3.45 -12.37,2.35 -4.51,-1.17 0.22,3.72 -2.06,-2.2l-8.33 0c-1.61,6.08 3.28,3.36 -4.17,4.17z"/>
   <path class="fil0" d="M1753.1 447.69l7.08 7.51c10.2,4.9 9.11,8.43 12.39,18.86 2.53,8.03 1.41,16.87 -1.35,25.07l-1.61 10.89c-0.24,17.55 3.01,92.44 -0.72,105.52l-3.44 15.3c-0.24,17.35 3.92,37.76 -1.93,54.32 -2.31,6.54 -1.04,18.86 -4.64,26.6 -3.97,8.51 -13.89,13.51 -14.11,23.39 3.01,0 4.94,0.21 7.9,-0.43 9.77,-2.12 0.41,-0.4 6.05,-2.29 5.76,-1.93 10.28,-1.7 17.38,-1.6 2.35,0.04 6.04,0.04 8.27,0.37l9.38 2.11c4.37,-0.5 3.55,-2.2 9.35,-2.33l0 -4.16c-17.54,-6.35 -16.72,-26.62 -16.67,-41.66 0.05,-13.98 -1.93,-29.73 0.1,-43.65 2.13,-14.55 1.11,0.86 3.65,-10.93 4.99,-23.1 -4.9,-70.68 1.29,-92.45l2.42 -5.91c1.37,-4.81 0.87,-8.52 0.87,-13.71 7.69,2.79 8.17,7.82 11.08,13.93l22.22 38.19c8.88,9.87 9.39,12.5 15.25,24.32 0.07,0.14 1.96,3.9 2.1,4.15l6.18 8.41c0.24,0.38 0.53,0.92 0.76,1.31l29.83 47.25c1.85,3.36 1.23,2.21 3.36,4.97 4.29,5.56 4.84,2.32 5.05,11.62l4.16 0c2.23,-5.52 -4.28,-3.89 8.33,-4.17 0.23,-10.11 4.28,-9.07 8.41,-16.59 0.3,-0.55 1.08,-2.23 1.36,-2.81l38.72 -61.26c0.25,-0.38 0.53,-0.92 0.77,-1.31l1.47 -2.7c0.24,-0.39 0.53,-0.93 0.77,-1.31l13.66 -19.68c0.24,-0.38 0.53,-0.92 0.77,-1.31l1.47 -2.69c0.24,-0.39 0.52,-0.94 0.77,-1.32l22.04 -32.11c0.99,-1.53 2.11,-3.85 2.87,-5.46 2.34,-4.91 4.2,-11.44 11.08,-13.93 0,20.68 4.17,7.95 4.16,52.08l-0.27 41.93c0.48,12.03 -1.41,7.78 4.44,10.15l0 108.32c-3.53,1.27 -2.18,0.92 -4.04,2.2 -5.47,3.76 -8.31,7.63 -8.46,14.46 9.53,0 21.81,1.98 31.3,0.05 6.33,-1.28 3.99,1.24 6.2,-4.22l8.33 0c2.57,6.39 11.25,4.43 18.82,4.34 9.62,-0.11 13.55,-2.48 18.67,-4.34l0 -4.16c-14.62,-0.33 -6.98,-4.83 -16.66,-8.33l0 -29.17c-5.85,-2.36 -3.96,1.89 -4.44,-10.14 -0.79,-19.74 4.18,-48.06 -1.81,-64.85 -3.96,-11.11 0.66,-34.33 -2.96,-47.03l-3.37 -11.21c-1.31,-15.07 -1.89,-83.45 2.62,-93.36 0.27,-0.59 1.09,-2.23 1.39,-2.78 2.39,-4.34 3.76,-6.36 8.57,-8.1l0 -4.16c-7.75,-2.81 -9.21,-4.25 -20.78,-4.27 -23.49,-0.04 -18.29,-2.15 -20.88,4.27l-20.83 0 -1.37 6.96c-0.16,0.47 -0.41,1.03 -0.6,1.49l-4.27 8.22c-0.22,0.42 -0.49,0.96 -0.7,1.39 -0.22,0.42 -0.48,0.96 -0.7,1.38l-45.07 73.66c-0.25,0.38 -0.56,0.9 -0.8,1.29 -0.31,0.54 -1.13,2.18 -1.42,2.75 -0.21,0.42 -0.45,0.98 -0.66,1.42 -5.1,10.57 -12.82,17.16 -17.98,27.85l-15.31 26.35c-2.95,5.91 0.21,-2.71 -2.78,5.55l-8.33 0 -1.35 -6.98c-2.64,-7.77 -8.72,-15.02 -13.48,-21.93l-4.5 -5.92c-0.24,-0.38 -0.53,-0.93 -0.77,-1.32 -0.13,-0.22 -1.33,-2.47 -1.47,-2.69l-18.64 -29.27c-0.25,-0.37 -0.56,-0.9 -0.79,-1.29l-34.76 -56.89c-0.22,-0.43 -0.46,-0.98 -0.67,-1.41l-8.44 -16.57c-1.67,-3.51 -1.35,-1.29 -2.26,-6.07 -0.54,-2.84 -0.36,-5.1 -0.36,-7.97 -11.34,-0.26 -10.65,-6.85 -22.84,-4.34 -6.38,1.31 -4.14,-1.06 -6.32,4.34l-8.33 0c-2.18,-5.39 -7.81,-4.83 -14.58,-4.49 -18.22,0.91 -4.47,3.43 -14.59,4.49z"/>
   <path class="fil0" d="M3790.34 668.49l0 8.34c-4.73,1.9 -3.45,4.23 -5.18,9.39l-4.52 10.06c-4.31,6.64 -11.01,11.85 -18.01,15.33l-11.23 5.43c-0.48,0.19 -1.04,0.37 -1.54,0.54l-9.39 3.11c-14.06,4.9 -48.27,3.51 -61.55,-1.18l-35.82 -16.26c-10.94,-5.23 -19.13,-15.74 -27.73,-24.34 -3.23,-3.23 -5.65,-5.66 -9.47,-9.29l-5.83 -6.66c-0.2,-0.46 -0.4,-1.05 -0.56,-1.53 -1.04,-3.13 -0.73,-1.91 -0.81,-5.44l-8.33 0 0 58.33 27.69 13.97c0.45,0.2 0.98,0.46 1.43,0.65 0.47,0.2 1.01,0.42 1.49,0.6l12.58 4.09c0.5,0.17 1.03,0.37 1.54,0.54 2.37,0.79 3.98,1.19 6.33,2l21.19 5.88c0.51,0.17 1,0.43 1.52,0.57 8.98,2.44 18.75,0.57 27.67,3.58 15.77,5.33 24.4,-2.4 38.02,-2.83l70.31 -21.34c7.74,-4.47 15.09,-13.99 21.46,-20.2 11.76,-11.47 10.14,-14.96 15.61,-30.24 2.24,-6.26 4.24,-10.94 1.76,-18.24 -0.17,-0.51 -0.49,-0.98 -0.66,-1.49l-8.48 -33.27c-4.28,-7.02 -18.96,-20.43 -25.61,-24.39l-39.31 -21.09c-0.53,-0.17 -1.11,-0.27 -1.65,-0.44l-63.2 -26.37c-0.42,-0.21 -0.96,-0.49 -1.38,-0.7l-22.25 -11.08c-7.74,-4.6 -16.42,-9.32 -20.34,-17.15 -0.21,-0.43 -0.48,-0.96 -0.69,-1.4 -0.2,-0.45 -0.47,-0.96 -0.66,-1.42 -0.19,-0.47 -0.44,-0.99 -0.61,-1.48l1.29 -25.33c3.95,-8.43 11.69,-15.99 19.57,-20 0.43,-0.22 0.99,-0.46 1.42,-0.67l2.8 -1.37c20.35,-10.3 50.73,-7.24 72.27,0.02l6.97 3.45c0.42,0.21 0.96,0.49 1.38,0.7l30.56 25.69c4.9,4.67 8.13,7.68 8.29,14.62l8.33 0 0 -58.33c-10.97,0 -18.73,-2.45 -28.6,-4.73 -14.65,-3.38 -21.84,-7.63 -38.14,-7.69 -12.46,-0.04 -21.89,-6.17 -35.22,-4.15 -14.42,2.19 2.31,2.25 -14.77,4 -4.54,0.46 -4.69,-0.24 -9.47,0.95l-7.61 2.8c-2.4,0.81 -4.45,1.38 -6.31,2.02l-11.05 3.53c-9.13,3.08 -14.17,8.12 -20.7,14.72 -5.16,5.22 -11.34,9.96 -14.99,16.26l-3.43 6.98c-0.21,0.42 -0.49,0.96 -0.7,1.38l-7.58 37.48c0.17,0.5 0.46,0.98 0.63,1.48l2.54 12.05c1.41,5.63 4.38,7.04 7.17,11.58l25.5 24.5c0.36,0.25 0.83,0.63 1.19,0.89l46.33 24.49c0.49,0.18 1.05,0.36 1.55,0.53 2.4,0.81 2.71,0.66 4.9,1.35 0.53,0.16 1.1,0.3 1.61,0.48l7.22 3.19c0.42,0.22 0.94,0.51 1.36,0.72 0.42,0.22 0.95,0.5 1.37,0.72l56.92 28.48c5.8,3.46 15.34,11 18.06,17.35 2.97,6.93 -1.22,12.55 5.55,15.28z"/>
   <path class="fil0" d="M3923.66 447.69l0 4.16c4.99,0.11 3.14,-0.67 7.06,1.28 4.2,2.07 4.3,4.26 4.99,5.43l4.71 14.03 -0.15 235.42c-1.51,11.68 0.47,1.43 -2.49,7.93 -4.94,10.87 -6.05,9.46 -9.95,10.88l0 4.16c0.47,0.18 1.1,0.17 1.3,0.78 2.27,6.64 100.2,3.39 104.93,3.39 36.8,0 73.61,0 110.41,0l0 -4.17c5.54,-2.23 0.98,1.87 5.69,-10.97 0.17,-0.49 0.37,-1.04 0.56,-1.51l1.35 -2.83c1.12,-2.33 0.33,-0.38 1.47,-2.69l8.37 -20.79c3.62,-6.94 3.39,-7.1 3.39,-15.36 -4.5,1.62 -2.96,1.44 -4.2,2.04 -17.43,8.43 -8.11,6.77 -18.08,13.17 -2.7,1.74 -1.67,0.75 -4.06,2.19l-8.42 6.16c-1.92,1.29 -1.22,0.93 -3.94,2.32 -8.01,4.1 -8.51,2.39 -14.89,3.85 -33.61,7.7 -27.68,7.76 -65.15,7.76 -17.36,0 -34.72,0 -52.07,0l0 -129.15 108.31 0 0 -25 -108.31 0 0 -91.65c23.84,0 11.22,-4.44 22.22,-1.51 4.86,1.3 9.03,2.88 16.48,0.63l3.07 -1.32c19.02,-6.91 -1.51,2.47 37.38,2.2 19.55,-0.14 27.19,-0.25 41.95,10.13l3.9 2.35c0.4,0.23 0.97,0.48 1.36,0.72l2.62 1.54c0.56,0.39 2.24,1.82 3.4,2.86l6.29 6.2c3.18,4.38 2.73,-1.63 2.97,9.53l8.34 0c0,-24.6 -8.34,-40.5 -8.34,-54.16 -15.93,-0.36 -0.59,-4.35 -22.79,-4.29l-164.7 0.1c-36.79,-0.33 -11.01,2.73 -24.98,4.19z"/>
   <path class="fil0" d="M2278.04 506.01l8.33 0c0.13,6.04 -0.11,2.75 1.37,6.97l8.43 16.56c1.72,3.76 0.27,0.03 1.79,4.46 0.89,2.58 1.05,3.82 1.9,6.43l10.11 25.3c0.22,0.42 0.49,0.96 0.7,1.39l9.94 23.39c0.17,0.5 0.35,1.05 0.54,1.54l11.05 26.45 -99.99 0 38.89 -90.26c0.21,-0.43 0.48,-0.97 0.7,-1.39 5.31,-10.35 6.24,-8.6 6.24,-20.84zm-12.5 -49.99l0 33.33c-4.91,1.98 -7.44,9.9 -9.81,15.19 -0.2,0.45 -0.46,0.97 -0.65,1.43 -0.19,0.47 -0.41,1.01 -0.59,1.49l-17.2 39.04c-0.81,2.4 -0.67,2.71 -1.35,4.91l-1.61 4.64c-0.19,0.45 -0.45,0.98 -0.65,1.43 -0.2,0.44 -0.49,0.95 -0.7,1.38l-6.33 12.42c-0.04,0.08 -1.34,2.7 -1.38,2.78 -0.6,1.18 -1.28,2.54 -2.09,4.17l-9.03 18.05c-0.21,0.42 -0.48,0.96 -0.7,1.38l-5.29 11.37c-0.77,2.32 -0.7,3.23 -1.3,4.95 -2.93,8.25 -5.31,6.3 -8.09,14.82 -0.21,0.65 -0.71,2.61 -0.91,3.26 -0.17,0.51 -0.36,1.05 -0.53,1.56 -2.4,7.36 1.33,-4.24 -1.09,3.07 -1.03,3.1 -1.78,6.41 -2.97,9.52l-11.72 27.87c-0.21,0.42 -0.49,0.95 -0.71,1.37l-13.17 26.41c-0.21,0.43 -0.46,0.98 -0.67,1.41 -3.68,7.51 -9.08,12.57 -15.08,18.25 -5.15,4.88 -6.96,2.82 -7.2,13.63 4.53,0 10.63,0.44 14.85,0.27 12.03,-0.48 7.78,1.42 10.15,-4.44l8.33 0c2.01,4.99 6.08,4.38 12.27,4.4 5.51,0.02 11.3,-0.23 16.89,-0.23 -0.07,-3.48 0.32,-2.31 -0.8,-5.45 -0.15,-0.42 -0.35,-1.09 -0.55,-1.53 -0.19,-0.42 -0.48,-0.97 -0.71,-1.37l-10.44 -8.31 0 -20.83c8.13,-3.28 1.31,1.46 4.28,-6.14 0.24,-0.61 0.7,-2.62 0.91,-3.26 0.18,-0.51 0.32,-1.08 0.5,-1.58 0.64,-1.78 0.45,-1.28 1.2,-2.97l17.15 -37.01c6.03,-8.03 2.01,1.24 5.13,-7.37l120.81 4.17c6.26,2.52 4.16,5.7 6.83,14l9.84 25.57c0.89,2.92 0.28,1.67 1.45,4.81l5.35 11.31c4.42,8.03 -2.09,3.65 5.7,6.8l0 12.5c-7.77,2.81 -0.68,0.03 -6.25,4.16 -5.57,4.14 1.52,1.36 -6.25,4.17l4.01 6.4c2.16,0.89 -1.47,0.36 4.66,1.59 14.06,2.83 46.26,0.25 62.23,0.42 11.22,0.12 14.77,-2.08 20.75,-4.25l0 -4.16c-2.57,-0.06 -1.68,0.2 -3.75,-0.41l-14.03 -10.97c-2.77,-2.77 -0.69,-0.35 -3.12,-3.13 -5.69,-6.51 -0.54,0.95 -4.87,-7.62l-2.02 -4.24c-0.46,-0.96 -1.36,-2.77 -2.07,-4.18l-9.08 -22.16c-0.18,-0.48 -0.4,-1.03 -0.6,-1.49l-52.81 -118c-0.21,-0.43 -0.48,-0.96 -0.69,-1.39l-27.34 -64.32c-0.68,-2.18 -0.54,-2.5 -1.35,-4.9l-5.89 -12.85c-4.42,-8.04 2.09,-3.66 -5.69,-6.81l0 -8.33c10.01,-3.63 -1.68,-0.54 8.33,-4.17l-13.95 -6.88c-12.99,-4.36 -42.67,-1.45 -56.87,-1.45l8.33 12.5z"/>
   <path class="fil0" d="M2690.48 493.52c6.87,0 8.37,1.2 12.72,-1.87 4.25,-3.01 3.88,-7.65 3.95,-10.63 17.54,-0.39 -3.55,-1.76 26.36,-11.13 5.44,-1.71 6.54,-1.52 13.1,-1.49 7.78,0.04 17.01,1.35 24.25,-0.77 7.3,-2.12 15.33,-9.72 19.61,0.89 6.65,2.68 4.29,-1.49 4.17,24.99 -0.14,32.94 2.84,136.48 -1.99,158.22l-0.32 3.23c1.46,11.14 5.73,27.18 1.97,38.19 -1.94,5.7 1.84,2.22 -3.83,4.51l0 20.83c-8.82,3.19 -3.67,5.14 -12.5,8.33l0 4.16c10.01,3.63 -1.33,1.11 7.01,3.42l59.73 0.83c7.81,0.08 10.86,0.52 16.74,-2.01 4.51,-1.94 -3.94,0.64 4.01,-2.24l0 -4.16c-21.15,-7.66 -16.66,-39.01 -16.66,-52.08l0 -210.39c10.8,3.91 -2.09,4.35 27.07,4.18 35.99,-0.22 33.44,-1.71 58.99,13.91l6.84 5.66c3.23,4.47 2.82,5.37 2.92,9.58l8.33 0 0.27 -39.85c-0.48,-12.03 1.42,-7.78 -4.44,-10.14 -2.36,-5.85 1.89,-3.96 -10.14,-4.44l-114.84 0.27c-43.05,0 -86.1,0 -129.15,0 0,47.85 -4.17,13.41 -4.17,50z"/>
   <path class="fil0" d="M3407.06 447.69l0 4.16c8.82,3.2 3.67,5.14 12.5,8.34l0 258.3c-7.77,2.81 -0.68,0.03 -6.25,4.16 -5.57,4.14 1.52,1.36 -6.25,4.17l0 4.16c10.01,3.63 -1.34,1.11 7,3.42l76.32 0.75c-0.2,-9.22 -0.78,-6.11 -4.97,-11.69l-1.75 -2.41c-5.75,-7.88 0.11,-4.35 -5.78,-6.73l0 -249.97c7.73,-2.79 12.32,-12.62 12.5,-20.83l-74.65 0.34c-11.65,2.34 3.33,2.57 -8.67,3.83z"/>
   <path class="fil0" d="M2515.51 447.69l8.33 10.41c1.45,1.41 0.01,0.59 3.15,3.1 3.22,2.58 0.77,1.56 5.18,3.15l0 249.97c-5.97,2.41 0.02,-1.21 -5.77,6.73l-1.75 2.41c-4.19,5.58 -4.77,2.47 -4.98,11.69l64.7 0.12c17.34,0.08 11.33,-1.64 18.63,-4.29l-10.36 -12.55c-8.36,-14.08 -6.31,-40.12 -6.31,-54.1 0,-21.52 -3.6,-184.26 2.56,-197.42l2.98 -5.35c4.12,-6.12 8.54,-7.27 10.32,-12.6 1.04,-3.13 0.73,-1.92 0.81,-5.44l-78.82 0.34c-11.65,2.34 3.33,2.57 -8.67,3.83z"/>
   <path class="fil0" d="M2786.3 -323.05l346.03 0.24c12.65,-1.32 5.57,1.86 8.1,-4.4l4.16 -12.5c-18.41,-6.67 -7.88,-4.17 -39.58,-4.17l-318.71 0 0 20.83z"/>
   <path class="fil0" d="M3407.06 935.13l0 -29.17 33.33 0 0 25c-17.27,0.38 0.25,1.92 -14.68,4.07 -4.43,0.64 -13.72,0.1 -18.65,0.1zm-12.5 45.82c1.33,3.3 -1.81,4.17 12.5,4.17 0,-3.22 -0.28,-7.56 -0.11,-10.61 0.45,-8.26 2.53,-9.74 2.53,-12.3 0,-5.32 -2.42,-2.09 -2.42,-14.59l16.66 0 2.72 5.62c5.15,10.37 17.88,21.22 18.11,31.88l20.84 0c-0.33,-14.5 -4.38,-6.59 -11.76,-19.49 -1.58,-2.77 -0.05,-1.13 -2.1,-4.15 -2.81,-4.16 -2.36,-3.85 -6.98,-5.52l0 -12.5 8.34 0c0.27,-12.21 9.27,-14.75 8.03,-24.51 -1.31,-10.35 -6.44,-20.3 -16.19,-25.66 -8.4,-4.63 -10.86,-4.18 -20.93,-4.07 -11.13,0.12 -22.27,0.08 -33.4,0.08 0,15.97 0,31.94 0,47.91l-0.24 35.64c1.31,12.66 -1.86,5.58 4.4,8.1z"/>
   <path class="fil0" d="M2748.81 985.12l63.82 -0.75c8.32,-2.33 -3,0.21 7,-3.42l0 -8.33c-10.09,-3.65 1.14,-4.42 -24.97,-4.18 -9.72,0.08 -19.46,0.01 -29.19,0.01l0 -24.99 41.67 0c0,-14.05 -0.95,-11.2 -4.17,-12.5 -1.94,-4.82 -0.4,-4.56 -18.82,-4.34 -2.78,0.04 -7.44,-0.01 -10.01,0.51 -6.16,1.25 -2.42,0.63 -4.65,1.6 -4.53,1.94 3.94,-0.65 -4.02,2.23l0 -25c9.03,0 18.07,-0.06 27.09,0.01 25.35,0.2 20.38,2.09 22.91,-4.17 3.3,-1.33 4.16,1.81 4.16,-12.5l-70.82 0 0 95.82z"/>
   <path class="fil0" d="M2432.18 918.46l4.17 0c2.77,7.67 8.16,17.06 8.33,25l-20.83 0c0.14,-6.16 0.34,-3.33 1.45,-6.89l6.88 -18.11zm-41.66 66.66l16.67 0c0.2,-9.32 4.44,-10.73 6.96,-18.04 1.45,-4.19 1.23,-0.9 1.37,-6.96l37.49 0 2.51 9.99c4.36,13.31 -1.76,7.78 5.83,10.84l16.66 4.17 -23.63 -63.86c-0.21,-0.42 -0.49,-0.95 -0.71,-1.37 -0.22,-0.42 -0.51,-0.94 -0.73,-1.36 -6.76,-13.1 -1.96,-11.63 -5.52,-19.47 -1.35,-3 -5.18,-5.01 -6.9,-9.76l-12.5 0 -6.86 18.13c-0.18,0.39 -2.49,4.79 -2.85,5.49l-7.39 17.6c-0.17,0.53 -0.31,1.1 -0.48,1.61l-14.3 33.61c-1.32,3.41 -0.83,2.9 -1.96,6.37l-3.66 13.01z"/>
   <path class="fil0" d="M3232.08 968.14l0 -24.68 41.66 0c0,-14.05 -0.95,-11.2 -4.16,-12.5 -1.6,-3.96 0.06,-4.9 -16.73,-4.42 -14.24,0.41 -10.13,2.08 -16.6,4.42 -0.17,-0.48 -0.67,-1.61 -0.78,-1.31l-1.46 -2.71c-2.99,-7.23 -1.93,-2.75 -1.93,-20.98l39.88 0.27c12.58,-0.5 8.02,1.3 9.68,-4.43l0.83 -9.51 -61.88 -0.37c-2.24,8.03 -2.01,81.92 -0.01,89.82 13.75,0.2 53.38,2.8 62.61,-1.07l0.67 -8.05 -51.78 -4.48z"/>
   <path class="fil0" d="M2511.34 431.02c6.18,-0.13 3.76,-0.54 6.83,-1.5l4.57 -1.68c16.65,-4.45 0.12,2.86 20.43,-6.65 13.59,-6.37 14.85,1.38 18.16,-6.83l8.34 0c2.74,6.81 0.91,1.53 15.19,5.63 0.52,0.15 1.03,0.39 1.54,0.55l41.59 6.32 0 -8.34 -8.43 -4.06c-6.66,-3.56 -8.44,-8.01 -24.65,-19.1 -0.09,-0.07 -2.37,-1.97 -3.47,-2.77l-15.03 -9.97c-8.17,-5.75 -2.92,3.72 -6.74,-5.76l-4.17 0c-3.83,9.48 1.43,0.01 -6.75,5.76 -1.91,1.34 -1.82,1.3 -3.63,2.61 -0.5,0.36 -1.85,1.46 -2.36,1.81 -21.55,14.49 -17.98,17.05 -27.59,22.4 -3.36,1.87 -6.26,2.4 -8.31,6.27l-2.82 9.68c-1.25,3.45 -0.16,-1.4 -2.7,5.63z"/>
   <path class="fil0" d="M2561.33 893.46l0 8.34c17.09,6.18 1.78,4.16 33.33,4.16l0 79.16 16.67 0 0 -79.16 33.33 0 0 -16.66 -64.7 -0.12c-2.76,-0.01 -7.39,-0.06 -9.96,0.46 -11.65,2.34 3.33,2.57 -8.67,3.82z"/>
   <polygon class="fil0" points="3090.43,985.12 3107.1,985.12 3107.1,889.3 3090.43,889.3 "/>
   <path class="fil0" d="M2986.28 982.55l4.12 -1.8c-0.23,-12.34 1.43,-5.82 -4.12,-8.28l-49.56 0.02c0.07,-13.86 0.71,-27.62 0.72,-41.53 0.01,-6.98 0.04,-13.89 0.16,-20.87 0.38,-21.46 -1.39,-15.5 -5.48,-18.01 -7.2,3.69 -3.87,-5.62 -5.27,9.46l1.52 80.59 57.91 0.42z"/>
   <path class="fil0" d="M3232.08 968.14l51.78 4.48 -0.67 8.05c-9.23,3.87 -48.86,1.27 -62.61,1.07 -2,-7.9 -2.23,-81.79 0.01,-89.82l61.88 0.37 -0.83 9.51c5.92,-2.15 2.51,1.45 4.37,-4.39 0.43,-1.34 0.23,-6.45 0.23,-8.11l-70.82 0 0 95.82 70.82 0 0 -16.67 -54.16 -0.31z"/>
   <path class="fil0" d="M2986.28 982.55l-57.91 -0.42 -1.52 -80.59c1.4,-15.08 -1.93,-5.77 5.27,-9.46 4.09,2.51 5.86,-3.45 5.48,18.01 -0.12,6.98 -0.15,13.89 -0.16,20.87 -0.01,13.91 -0.65,27.67 -0.72,41.53l49.56 -0.02 -45.83 -4.02 0 -79.15 -16.66 0 0 95.82 56.21 -0.04c8.51,-1.44 2.65,0.31 6.28,-2.53z"/>
  </g>
  <text x="-395.58" y="937.21"  class="fil1 fnt0">MAI</text>
  <path class="fil0" d="M-2506.25 -116.95c0.96,67.22 -15.02,158.27 -45.31,267.15l1.56 -384.71 296.84 345.65 -14.06 12.5 -239.03 -240.59z"/>
  <path class="fil0" d="M-2011.78 -120.86c-0.96,67.22 12.29,166.48 42.57,275.36l4.69 -389.41c-121.97,139.39 -243.68,281.17 -364.8,428.46 102.49,-92.31 206.72,-201.26 317.54,-314.41z"/>
  <rect class="fil0" x="-2351.39" y="-63.64" width="186.89" height="9.96" rx="1.95" ry="1.95"/>
  <path class="fil2 str0" d="M-2731.77 356.4l0 4.35c-4.93,0.15 -8.66,0.69 -11.2,1.63 -2.54,0.94 -4.24,2.68 -5.11,5.22 -0.87,2.54 -1.31,6.49 -1.31,11.86l0 107.9c0,5.22 0.44,9.14 1.31,11.75 0.87,2.61 2.57,4.35 5.11,5.22 2.54,0.87 6.27,1.45 11.2,1.74l0 4.35c-3.33,-0.29 -7.5,-0.47 -12.51,-0.54 -5,-0.07 -10.04,-0.11 -15.12,-0.11 -5.65,0 -10.95,0.04 -15.88,0.11 -4.93,0.07 -8.92,0.25 -11.96,0.54l0 -4.35c4.93,-0.29 8.66,-0.87 11.2,-1.74 2.54,-0.87 4.24,-2.61 5.11,-5.22 0.88,-2.61 1.31,-6.53 1.31,-11.75l0 -119.65 0.87 0.65 -53.3 143.15 -3.48 0 -54.82 -141.19 0 114.87c0,5.22 0.47,9.32 1.41,12.29 0.94,2.97 2.83,5.08 5.66,6.31 2.83,1.23 7.07,1.99 12.73,2.28l0 4.35c-2.62,-0.29 -6.02,-0.47 -10.23,-0.54 -4.21,-0.07 -8.19,-0.11 -11.96,-0.11 -3.63,0 -7.29,0.04 -10.99,0.11 -3.7,0.07 -6.78,0.25 -9.25,0.54l0 -4.35c4.93,-0.29 8.67,-1.05 11.21,-2.28 2.53,-1.23 4.24,-3.34 5.11,-6.31 0.87,-2.97 1.3,-7.07 1.3,-12.29l0 -105.73c0,-5.37 -0.43,-9.32 -1.3,-11.86 -0.87,-2.54 -2.58,-4.28 -5.11,-5.22 -2.54,-0.94 -6.28,-1.48 -11.21,-1.63l0 -4.35c2.47,0.14 5.55,0.29 9.25,0.43 3.7,0.15 7.36,0.22 10.99,0.22 3.19,0 6.49,-0.07 9.89,-0.22 3.41,-0.14 6.28,-0.29 8.6,-0.43l49.38 130.09 -3.7 1.74 48.95 -131.18c1.74,0 3.44,0 5.11,0 1.67,0 3.37,0 5.11,0 5.08,0 10.12,-0.07 15.12,-0.22 5.01,-0.14 9.18,-0.29 12.51,-0.43z"/>
  <path id="1" class="fil2 str0" d="M-2611.09 355.31l53.08 136.84c2.18,5.51 4.64,9.17 7.4,10.99 2.75,1.81 5.29,2.79 7.61,2.93l0 4.35c-2.9,-0.29 -6.45,-0.47 -10.66,-0.54 -4.2,-0.07 -8.41,-0.11 -12.61,-0.11 -5.66,0 -10.95,0.04 -15.88,0.11 -4.94,0.07 -8.92,0.25 -11.97,0.54l0 -4.35c7.4,-0.29 12.11,-1.56 14.14,-3.81 2.03,-2.24 1.6,-7.07 -1.31,-14.46l-40.46 -108.12 3.48 -2.83 -37.85 98.33c-2.32,5.8 -3.7,10.7 -4.13,14.68 -0.44,3.99 -0.04,7.15 1.19,9.47 1.23,2.32 3.34,3.99 6.31,5 2.97,1.02 6.71,1.6 11.2,1.74l0 4.35c-4.06,-0.29 -8.3,-0.47 -12.72,-0.54 -4.43,-0.07 -8.52,-0.11 -12.29,-0.11 -3.63,0 -6.71,0.04 -9.25,0.11 -2.54,0.07 -4.89,0.25 -7.07,0.54l0 -4.35c2.9,-0.72 5.87,-2.43 8.92,-5.11 3.04,-2.68 5.8,-7.29 8.27,-13.81l51.12 -131.84c0.58,0 1.16,0 1.74,0 0.58,0 1.16,0 1.74,0zm26.54 92.46l0 4.35 -64.83 0 2.18 -4.35 62.65 0z"/>
  <path id="2" class="fil2 str0" d="M-2442.77 356.4l0 4.35c-4.93,0.15 -8.66,0.69 -11.2,1.63 -2.54,0.94 -4.24,2.68 -5.11,5.22 -0.87,2.54 -1.31,6.49 -1.31,11.86l0 107.9c0,5.22 0.44,9.14 1.31,11.75 0.87,2.61 2.57,4.35 5.11,5.22 2.54,0.87 6.27,1.45 11.2,1.74l0 4.35c-3.33,-0.29 -7.5,-0.47 -12.51,-0.54 -5,-0.07 -10.04,-0.11 -15.12,-0.11 -5.65,0 -10.95,0.04 -15.88,0.11 -4.93,0.07 -8.92,0.25 -11.96,0.54l0 -4.35c4.93,-0.29 8.66,-0.87 11.2,-1.74 2.54,-0.87 4.24,-2.61 5.11,-5.22 0.87,-2.61 1.31,-6.53 1.31,-11.75l0 -107.9c0,-5.37 -0.44,-9.32 -1.31,-11.86 -0.87,-2.54 -2.57,-4.28 -5.11,-5.22 -2.54,-0.94 -6.27,-1.48 -11.2,-1.63l0 -4.35c3.04,0.14 7.03,0.29 11.96,0.43 4.93,0.15 10.23,0.22 15.88,0.22 5.08,0 10.12,-0.07 15.12,-0.22 5.01,-0.14 9.18,-0.29 12.51,-0.43zm-25.67 -45.25c3.34,5.51 8.6,10.84 15.77,15.99 7.18,5.15 15.49,9.39 24.91,12.73l-1.08 3.04c-8.71,-1.88 -17.26,-4.2 -25.68,-6.96 -8.41,-2.76 -15.15,-5.51 -20.23,-8.27 -4.06,2.76 -9.53,5.51 -16.42,8.27 -6.89,2.76 -13.82,5.08 -20.78,6.96l-1.09 -3.04c9.43,-3.34 17.73,-7.58 24.91,-12.73 7.18,-5.15 12.44,-10.48 15.78,-15.99l3.91 0z"/>
  <path id="3" class="fil2 str0" d="M-2263.57 356.4c-0.58,5.51 -0.98,10.84 -1.19,15.99 -0.22,5.15 -0.33,9.1 -0.33,11.86 0,3.48 0.07,6.74 0.22,9.79 0.14,3.04 0.29,5.72 0.43,8.04l-5 0c-1.02,-10.15 -2.39,-18.16 -4.14,-24.03 -1.74,-5.88 -4.78,-10.12 -9.13,-12.73 -4.35,-2.61 -11.1,-3.92 -20.23,-3.92l-11.75 0 0 123.79c0,5.8 0.54,10.15 1.63,13.05 1.09,2.9 3.23,4.86 6.42,5.87 3.19,1.02 7.83,1.67 13.92,1.96l0 4.35c-3.77,-0.29 -8.56,-0.47 -14.36,-0.54 -5.8,-0.07 -11.67,-0.11 -17.62,-0.11 -6.53,0 -12.65,0.04 -18.38,0.11 -5.73,0.07 -10.34,0.25 -13.82,0.54l0 -4.35c6.1,-0.29 10.74,-0.94 13.93,-1.96 3.19,-1.01 5.33,-2.97 6.41,-5.87 1.09,-2.9 1.64,-7.25 1.64,-13.05l0 -123.79 -11.75 0c-8.99,0 -15.7,1.31 -20.13,3.92 -4.42,2.61 -7.5,6.85 -9.24,12.73 -1.74,5.87 -3.12,13.88 -4.13,24.03l-5.01 0c0.29,-2.32 0.47,-5 0.55,-8.04 0.07,-3.05 0.11,-6.31 0.11,-9.79 0,-2.76 -0.11,-6.71 -0.33,-11.86 -0.22,-5.15 -0.62,-10.48 -1.2,-15.99 6.09,0.14 12.73,0.29 19.91,0.43 7.18,0.15 14.39,0.22 21.64,0.22 7.26,0 13.85,0 19.8,0 5.95,0 12.51,0 19.69,0 7.18,0 14.39,-0.07 21.64,-0.22 7.26,-0.14 13.86,-0.29 19.8,-0.43z"/>
  <path id="4" class="fil2 str0" d="M-2206.85 356.4c3.05,0.14 7.03,0.29 11.97,0.43 4.93,0.15 9.79,0.22 14.57,0.22 6.82,0 13.35,-0.07 19.58,-0.22 6.24,-0.14 10.66,-0.21 13.27,-0.21 11.75,0 21.5,1.66 29.26,5 7.76,3.34 13.56,7.87 17.4,13.6 3.85,5.73 5.77,12.14 5.77,19.25 0,4.35 -0.87,8.99 -2.61,13.92 -1.74,4.93 -4.75,9.58 -9.03,13.93 -4.28,4.35 -10.11,7.94 -17.51,10.76 -7.4,2.83 -16.75,4.25 -28.06,4.25l-20.89 0 0 -4.35 18.71 0c10.3,0 18.16,-1.64 23.6,-4.9 5.44,-3.26 9.14,-7.61 11.1,-13.05 1.96,-5.44 2.94,-11.5 2.94,-18.17 0,-11.46 -2.72,-20.34 -8.16,-26.65 -5.44,-6.31 -14.76,-9.46 -27.96,-9.46 -6.67,0 -11.02,1.23 -13.05,3.7 -2.03,2.46 -3.05,7.47 -3.05,15.01l0 107.9c0,5.22 0.44,9.14 1.31,11.75 0.87,2.61 2.57,4.35 5.11,5.22 2.54,0.87 6.27,1.45 11.21,1.74l0 4.35c-3.34,-0.29 -7.51,-0.47 -12.51,-0.54 -5.01,-0.07 -10.05,-0.11 -15.12,-0.11 -5.66,0 -10.95,0.04 -15.88,0.11 -4.94,0.07 -8.92,0.25 -11.97,0.54l0 -4.35c4.93,-0.29 8.67,-0.87 11.2,-1.74 2.54,-0.87 4.25,-2.61 5.12,-5.22 0.87,-2.61 1.3,-6.53 1.3,-11.75l0 -107.9c0,-5.37 -0.43,-9.32 -1.3,-11.86 -0.87,-2.54 -2.58,-4.28 -5.12,-5.22 -2.53,-0.94 -6.27,-1.48 -11.2,-1.63l0 -4.35zm34.59 77.23c7.83,0.29 14,0.61 18.49,0.98 4.5,0.36 8.16,0.69 10.99,0.98 2.83,0.29 5.55,0.65 8.16,1.08 9.71,1.6 16.71,4.54 20.99,8.81 4.28,4.28 7.43,10.92 9.46,19.91l5.44 22.19c1.45,6.38 2.94,10.99 4.46,13.81 1.52,2.83 3.88,4.17 7.07,4.03 2.47,-0.15 4.53,-0.94 6.2,-2.39 1.67,-1.45 3.45,-3.41 5.33,-5.88l3.27 2.4c-3.05,4.49 -6.2,7.94 -9.47,10.33 -3.26,2.39 -7.87,3.59 -13.81,3.59 -5.37,0 -10.08,-1.6 -14.14,-4.79 -4.06,-3.19 -7.11,-9.42 -9.14,-18.71l-4.79 -21.75c-1.3,-6.24 -2.79,-11.64 -4.46,-16.21 -1.66,-4.57 -3.98,-8.16 -6.96,-10.77 -2.97,-2.61 -7.36,-3.91 -13.16,-3.91l-23.49 0 -0.44 -3.7z"/>
  <path id="5" class="fil2 str0" d="M-1969.13 356.4l0 4.35c-4.93,0.15 -8.67,0.69 -11.2,1.63 -2.54,0.94 -4.25,2.68 -5.12,5.22 -0.87,2.54 -1.3,6.49 -1.3,11.86l0 107.9c0,5.22 0.43,9.14 1.3,11.75 0.87,2.61 2.58,4.35 5.12,5.22 2.53,0.87 6.27,1.45 11.2,1.74l0 4.35c-3.34,-0.29 -7.51,-0.47 -12.51,-0.54 -5,-0.07 -10.04,-0.11 -15.12,-0.11 -5.65,0 -10.95,0.04 -15.88,0.11 -4.93,0.07 -8.92,0.25 -11.96,0.54l0 -4.35c4.93,-0.29 8.66,-0.87 11.2,-1.74 2.54,-0.87 4.24,-2.61 5.11,-5.22 0.87,-2.61 1.31,-6.53 1.31,-11.75l0 -107.9c0,-5.37 -0.44,-9.32 -1.31,-11.86 -0.87,-2.54 -2.57,-4.28 -5.11,-5.22 -2.54,-0.94 -6.27,-1.48 -11.2,-1.63l0 -4.35c3.04,0.14 7.03,0.29 11.96,0.43 4.93,0.15 10.23,0.22 15.88,0.22 5.08,0 10.12,-0.07 15.12,-0.22 5,-0.14 9.17,-0.29 12.51,-0.43z"/>
  <path id="6" class="fil2 str0" d="M-1863.03 354.01c7.25,0 12.77,0.83 16.54,2.5 3.77,1.67 7.1,3.52 10,5.55 1.74,1.01 3.16,1.77 4.25,2.28 1.08,0.51 2.14,0.76 3.15,0.76 1.45,0 2.5,-0.8 3.15,-2.39 0.66,-1.6 1.2,-3.99 1.64,-7.18l5 0c-0.14,2.46 -0.33,5.4 -0.54,8.81 -0.22,3.41 -0.37,7.9 -0.44,13.49 -0.07,5.58 -0.11,12.94 -0.11,22.08l-5 0c-0.44,-6.96 -1.96,-13.63 -4.57,-20.02 -2.61,-6.38 -6.42,-11.6 -11.42,-15.66 -5,-4.06 -11.57,-6.09 -19.69,-6.09 -7.69,0 -14.03,2.32 -19.03,6.96 -5.01,4.64 -7.51,10.73 -7.51,18.27 0,6.53 1.67,12.01 5,16.43 3.34,4.42 7.8,8.41 13.38,11.97 5.59,3.55 11.64,7.36 18.17,11.42 7.54,4.64 14.25,9.24 20.12,13.81 5.87,4.57 10.52,9.61 13.92,15.12 3.41,5.51 5.12,12.18 5.12,20.01 0,9.29 -2.11,16.97 -6.31,23.06 -4.21,6.1 -9.79,10.67 -16.75,13.71 -6.96,3.05 -14.65,4.57 -23.06,4.57 -7.69,0 -13.78,-0.87 -18.28,-2.61 -4.49,-1.74 -8.34,-3.55 -11.53,-5.44 -3.19,-2.03 -5.65,-3.05 -7.39,-3.05 -1.45,0 -2.51,0.8 -3.16,2.4 -0.65,1.59 -1.19,3.99 -1.63,7.18l-5 0c0.29,-3.05 0.47,-6.64 0.54,-10.77 0.07,-4.14 0.15,-9.54 0.22,-16.21 0.07,-6.67 0.11,-15.08 0.11,-25.24l5 0c0.58,8.71 2.21,16.83 4.89,24.37 2.69,7.54 6.82,13.6 12.4,18.16 5.59,4.57 13.02,6.86 22.3,6.86 4.79,0 9.32,-0.98 13.6,-2.94 4.28,-1.96 7.8,-5.08 10.55,-9.35 2.76,-4.28 4.13,-9.83 4.13,-16.65 0,-5.94 -1.41,-11.13 -4.24,-15.55 -2.83,-4.42 -6.78,-8.56 -11.85,-12.4 -5.08,-3.84 -11.03,-7.8 -17.84,-11.86 -6.82,-4.2 -13.2,-8.48 -19.15,-12.83 -5.94,-4.35 -10.69,-9.39 -14.25,-15.12 -3.55,-5.73 -5.33,-12.66 -5.33,-20.78 0,-8.56 1.93,-15.63 5.77,-21.21 3.84,-5.58 8.88,-9.72 15.12,-12.4 6.24,-2.68 12.91,-4.02 20.01,-4.02z"/>
  <path id="7" class="fil2 str0" d="M-1642.28 356.4c-0.58,5.08 -0.98,10.01 -1.19,14.79 -0.22,4.79 -0.33,8.41 -0.33,10.88 0,2.61 0.07,5.11 0.22,7.5 0.14,2.4 0.29,4.39 0.43,5.99l-5 0c-0.87,-8.56 -2.1,-15.34 -3.7,-20.34 -1.59,-5.01 -4.31,-8.56 -8.16,-10.66 -3.84,-2.11 -9.61,-3.16 -17.29,-3.16l-18.06 0c-4.93,0 -8.66,0.4 -11.2,1.2 -2.54,0.8 -4.24,2.46 -5.11,5 -0.87,2.54 -1.31,6.49 -1.31,11.86l0 107.9c0,5.22 0.44,9.14 1.31,11.75 0.87,2.61 2.57,4.31 5.11,5.11 2.54,0.8 6.27,1.2 11.2,1.2l15.88 0c9.14,0 16.06,-1.23 20.78,-3.7 4.71,-2.46 8.12,-6.49 10.22,-12.07 2.11,-5.59 3.67,-13.16 4.68,-22.74l5 0c-0.43,3.92 -0.65,9.14 -0.65,15.67 0,2.75 0.11,6.71 0.33,11.85 0.22,5.15 0.61,10.48 1.19,15.99 -7.39,-0.29 -15.73,-0.47 -25.01,-0.54 -9.29,-0.07 -17.55,-0.11 -24.8,-0.11 -3.19,0 -7.29,0 -12.3,0 -5,0 -10.4,0.04 -16.2,0.11 -5.8,0.07 -11.68,0.14 -17.62,0.22 -5.95,0.07 -11.61,0.18 -16.97,0.32l0 -4.35c4.93,-0.29 8.66,-0.87 11.2,-1.74 2.54,-0.87 4.24,-2.61 5.11,-5.22 0.87,-2.61 1.31,-6.53 1.31,-11.75l0 -107.9c0,-5.37 -0.44,-9.32 -1.31,-11.86 -0.87,-2.54 -2.57,-4.28 -5.11,-5.22 -2.54,-0.94 -6.27,-1.48 -11.2,-1.63l0 -4.35c5.36,0.14 11.02,0.25 16.97,0.33 5.94,0.07 11.82,0.14 17.62,0.21 5.8,0.07 11.2,0.11 16.2,0.11 5.01,0 9.11,0 12.3,0 6.67,0 14.25,-0.04 22.73,-0.11 8.48,-0.07 16.06,-0.25 22.73,-0.54zm-37.41 74.4c0,0 0,0.73 0,2.18 0,1.45 0,2.17 0,2.17l-39.82 0c0,0 0,-0.72 0,-2.17 0,-1.45 0,-2.18 0,-2.18l39.82 0zm6.3 -28.72c-0.58,8.27 -0.83,14.58 -0.76,18.93 0.08,4.35 0.11,8.34 0.11,11.97 0,3.62 0.07,7.61 0.22,11.96 0.14,4.35 0.51,10.66 1.09,18.93l-5.01 0c-0.58,-4.64 -1.27,-9.17 -2.06,-13.6 -0.8,-4.42 -2.54,-8.05 -5.22,-10.88 -2.69,-2.82 -7.22,-4.24 -13.6,-4.24l0 -4.35c4.78,0 8.45,-0.98 10.98,-2.94 2.54,-1.95 4.39,-4.46 5.55,-7.5 1.16,-3.05 1.96,-6.2 2.4,-9.47 0.43,-3.26 0.87,-6.2 1.3,-8.81l5 0z"/>
  <path class="fil2 str0" d="M-2558.65 642.52l18.15 -50 7.39 0 18.39 50 -6.71 0 -10.6 -29.67c-0.65,-1.83 -1.41,-4.12 -2.27,-6.86 -0.86,-2.74 -1.91,-6.23 -3.14,-10.48l1.21 0c-1.21,4.29 -2.25,7.83 -3.14,10.62 -0.88,2.78 -1.62,5.02 -2.19,6.72l-10.31 29.67 -6.78 0zm9.13 -13.97l0 -5.56 25.67 0 0 5.56 -25.67 0z"/>
  <polygon id="1" class="fil2 str0" points="-2466.28,598.15 -2466.28,592.52 -2428.48,592.52 -2428.48,598.15 -2444.16,598.15 -2444.16,642.52 -2450.54,642.52 -2450.54,598.15 "/>
  <polygon id="2" class="fil2 str0" points="-2369.91,642.52 -2369.91,592.52 -2339.43,592.52 -2339.43,598.15 -2363.53,598.15 -2363.53,614.46 -2341.08,614.46 -2341.08,620.1 -2363.53,620.1 -2363.53,636.88 -2339.13,636.88 -2339.13,642.52 "/>
  <polygon id="3" class="fil2 str0" points="-2279.36,642.52 -2279.36,592.52 -2272.98,592.52 -2272.98,636.88 -2249.83,636.88 -2249.83,642.52 "/>
  <polygon id="4" class="fil2 str0" points="-2184.86,592.52 -2184.86,642.52 -2191.25,642.52 -2191.25,592.52 "/>
  <polygon id="5" class="fil2 str0" points="-2123.54,642.52 -2123.54,592.52 -2093.06,592.52 -2093.06,598.15 -2117.16,598.15 -2117.16,614.46 -2094.71,614.46 -2094.71,620.1 -2117.16,620.1 -2117.16,636.88 -2092.76,636.88 -2092.76,642.52 "/>
  <path id="6" class="fil2 str0" d="M-2032.99 642.52l0 -50 17.11 0c3.9,0 7.11,0.66 9.63,1.99 2.52,1.33 4.38,3.16 5.6,5.49 1.22,2.32 1.83,4.98 1.83,7.95 0,2.98 -0.61,5.61 -1.83,7.89 -1.22,2.28 -3.08,4.07 -5.59,5.35 -2.5,1.28 -5.71,1.94 -9.6,1.94l-13.59 0 0 -5.67 13.29 0c2.65,0 4.77,-0.39 6.36,-1.17 1.6,-0.77 2.77,-1.87 3.5,-3.29 0.75,-1.42 1.11,-3.11 1.11,-5.05 0,-1.98 -0.36,-3.71 -1.11,-5.18 -0.73,-1.47 -1.91,-2.61 -3.51,-3.43 -1.62,-0.81 -3.75,-1.22 -6.42,-1.22l-10.4 0 0 44.4 -6.38 0zm28.73 0l-12.09 -22.52 7.19 0 12.29 22.52 -7.39 0z"/>
 </g>
</svg>
